# xmcd CD database file
#
# Track frame offsets:
#	183
#	22200
#	41105
#	61268
#	97563
#	116605
#	138158
#	155723
#	174425
#	190198
#	205428
#
# Disc length: 2856 seconds
#
# Revision: 1
# Processed by: cddbd v1.5.2PL0 Copyright (c) Steve Scherf et al.
# Submitted via: CDex 1.51
#
DISCID=940b260b
DTITLE=Professor Longhair - Live In Germany
DYEAR=1992
DGENRE=Blues
TTITLE0=Stompin' With Fess (Live)
TTITLE1=Mess Arround (Live)
TTITLE2=Big Chief (Live)
TTITLE3=Everyday I Have The Blues (Live)
TTITLE4=How Long Has That Train Been Gone (Live)
TTITLE5=Bald Head ( She Ain't Got No Hair) (Live)
TTITLE6=Whole Lotta Lovin' (Live)
TTITLE7=Tipatina (Live)
TTITLE8=Go To The Mardi Gras (Live)
TTITLE9=Hey Little Girl (Live)
TTITLE10=Got My Mojo Working (Live)
EXTD=YEAR: 1992
EXTT0=
EXTT1=
EXTT2=
EXTT3=
EXTT4=
EXTT5=
EXTT6=
EXTT7=
EXTT8=
EXTT9=
EXTT10=
PLAYORDER=
